# xmcd CD database file
# Copyright (C) 1997 Ti Kan
# 
# Track frame offsets:
#     150
#     18677
#     33222
#     45440
#     62557
#     79550
#     96520
#     115860
#     131427
#     147765
#     155540
# 
# Disc length: 2584 seconds
# 
# Revision: 1
# Processed by: cddbd v1.4b41PL1 Copyright (c) Steve Scherf et al.
# Submitted via: DiscPlay 4.0.4
# 
DISCID=870a160b
DTITLE=Mulens Portland Combo - Tired Of The Blues
DYEAR=1900
DGENRE=
TTITLE0=Headin' Down
TTITLE1=Tired Of The Blues
TTITLE2=Busting Our Asses
TTITLE3=Angel Blue
TTITLE4=Why Get Up
TTITLE5=Try Again Later
TTITLE6=Another Kind Of Loneliness
TTITLE7=Chasing Rainbows
TTITLE8=Maybe Baby
TTITLE9=If You're Doing It Right
TTITLE10=Get Out Of My Life, Woman
EXTD=
EXTT0=
EXTT1=
EXTT2=
EXTT3=
EXTT4=
EXTT5=
EXTT6=
EXTT7=
EXTT8=
EXTT9=
EXTT10=
PLAYORDER=
